<svg xmlns="http://www.w3.org/2000/svg" viewBox="0 0 20 20"><title>insta</title><path d="M20.01 1.76v4.9h-6.66a4.83 4.83 0 0 0-6.68 0H.01v-4.9A1.78 1.78 0 0 1 1.77 0h16.48a1.78 1.78 0 0 1 1.76 1.76zm0 7.58v8.9A1.78 1.78 0 0 1 18.25 20H1.77a1.78 1.78 0 0 1-1.76-1.76V9.35h4.9a4.31 4.31 0 0 0-.16 1.24 5.26 5.26 0 1 0 10.52 0 4.31 4.31 0 0 0-.16-1.24h4.9zm-10-2a3.33 3.33 0 1 0 3.34 3.32A3.33 3.33 0 0 0 10 7.35zm8.66-5.32a.67.67 0 0 0-.68-.68h-2.62a.69.69 0 0 0-.7.68v2.62a.71.71 0 0 0 .7.7h2.62a.69.69 0 0 0 .68-.7V2.02z" fill="#fff"/></svg>